<svg width="134" height="29" viewBox="0 0 134 29" fill="none" xmlns="http://www.w3.org/2000/svg">
<path d="M20.4604 26.082H7.97559V27.28H20.4604V26.082Z" fill="#BADE5B"/>
<path d="M20.4587 26.5586H0V28.0013H20.4587V26.5586Z" fill="#BADE5B"/>
<path d="M20.4604 23.9062H7.97559V25.1042H20.4604V23.9062Z" fill="#BADE5B"/>
<path d="M20.4587 24.3828H0V25.8256H20.4587V24.3828Z" fill="#BADE5B"/>
<path d="M20.4604 21.7344H7.97559V22.9324H20.4604V21.7344Z" fill="#BADE5B"/>
<path d="M20.4587 22.2109H0V23.6537H20.4587V22.2109Z" fill="#BADE5B"/>
<path d="M20.4604 19.5625H7.97559V20.7605H20.4604V19.5625Z" fill="#BADE5B"/>
<path d="M20.4587 20.0352H0V21.4779H20.4587V20.0352Z" fill="#BADE5B"/>
<path d="M20.4604 17.3867H7.97559V18.5847H20.4604V17.3867Z" fill="#BADE5B"/>
<path d="M20.4587 17.8633H0V19.306H20.4587V17.8633Z" fill="#BADE5B"/>
<path d="M20.4604 15.2148H7.97559V16.4128H20.4604V15.2148Z" fill="#BADE5B"/>
<path d="M20.4587 15.6914H0V17.1342H20.4587V15.6914Z" fill="#BADE5B"/>
<path d="M20.4604 13.0391H7.97559V14.237H20.4604V13.0391Z" fill="#BADE5B"/>
<path d="M20.4587 13.5156H0V14.9584H20.4587V13.5156Z" fill="#BADE5B"/>
<path d="M5.86052 11.3438H1.35303V12.7865H5.86052V11.3438Z" fill="#BADE5B"/>
<path d="M18.8361 10.8672H16.0161V12.0652H18.8361V10.8672Z" fill="#BADE5B"/>
<path d="M5.85905 10.8672H3.03906V12.0652H5.85905V10.8672Z" fill="#BADE5B"/>
<path d="M18.8356 11.3438H14.3281V12.7865H18.8356V11.3438Z" fill="#BADE5B"/>
<path d="M5.86052 9.16797H1.35303V10.6107H5.86052V9.16797Z" fill="#BADE5B"/>
<path d="M18.8361 8.69531H16.0161V9.89329H18.8361V8.69531Z" fill="#BADE5B"/>
<path d="M5.85905 8.69531H3.03906V9.89329H5.85905V8.69531Z" fill="#BADE5B"/>
<path d="M18.8356 9.16797H14.3281V10.6107H18.8356V9.16797Z" fill="#BADE5B"/>
<path d="M5.86052 6.99609H1.35303V8.43884H5.86052V6.99609Z" fill="#BADE5B"/>
<path d="M18.8361 6.51953H16.0161V7.71751H18.8361V6.51953Z" fill="#BADE5B"/>
<path d="M5.85905 6.51953H3.03906V7.71751H5.85905V6.51953Z" fill="#BADE5B"/>
<path d="M18.8356 6.99609H14.3281V8.43884H18.8356V6.99609Z" fill="#BADE5B"/>
<path d="M6.74871 4.82422H2.24121V6.26696H6.74871V4.82422Z" fill="#BADE5B"/>
<path d="M18.0382 4.34766H15.2183V5.54563H18.0382V4.34766Z" fill="#BADE5B"/>
<path d="M6.74479 4.34766H3.9248V5.54563H6.74479V4.34766Z" fill="#BADE5B"/>
<path d="M18.0378 4.82422H13.5303V6.26696H18.0378V4.82422Z" fill="#BADE5B"/>
<path d="M16.361 2.17188H7.85791V3.36985H16.361V2.17188Z" fill="#BADE5B"/>
<path d="M16.3614 2.65234H3.9248V4.09509H16.3614V2.65234Z" fill="#BADE5B"/>
<path d="M14.5571 0H8.32764V1.19798H14.5571V0Z" fill="#BADE5B"/>
<path d="M14.5581 0.476562H5.38281V1.91931H14.5581V0.476562Z" fill="#BADE5B"/>
<path d="M34.603 1.64708C35.9617 1.64708 37.1212 1.82277 38.0816 2.17414C39.0654 2.52552 39.8736 3.00572 40.5061 3.61477C41.1385 4.20039 41.5953 4.89142 41.8764 5.68786C42.1809 6.48431 42.3332 7.3276 42.3332 8.21775C42.3332 9.08446 42.1809 9.93947 41.8764 10.7828C41.5953 11.6261 41.1385 12.3756 40.5061 13.0315C39.8736 13.664 39.0654 14.1794 38.0816 14.5776C37.1212 14.9758 35.9617 15.1749 34.603 15.1749H33.5138V23.4322C33.5138 24.2755 33.5255 24.9665 33.5489 25.5053C33.5957 26.044 33.6894 26.4657 33.83 26.7702C33.9705 27.0513 34.1931 27.2504 34.4976 27.3675C34.8021 27.4612 35.2238 27.5081 35.7625 27.5081V28H27.7161V27.5081C28.2783 27.5081 28.7117 27.4612 29.0162 27.3675C29.3207 27.2504 29.5433 27.0513 29.6838 26.7702C29.8244 26.4657 29.9063 26.044 29.9298 25.5053C29.9766 24.9665 30 24.2755 30 23.4322V5.723C30 4.97341 29.9766 4.36436 29.9298 3.89587C29.8829 3.42737 29.7775 3.06429 29.6135 2.80661C29.473 2.54894 29.2504 2.37325 28.9459 2.27955C28.6648 2.18585 28.2549 2.13901 27.7161 2.13901V1.64708H34.603ZM34.603 14.2965C36.0085 14.2731 37.0392 13.7694 37.6951 12.7856C38.3744 11.8017 38.7141 10.2791 38.7141 8.21775C38.7141 7.18705 38.6087 6.32033 38.3978 5.61759C38.187 4.89142 37.9059 4.3058 37.5545 3.86073C37.2266 3.39223 36.8401 3.05257 36.395 2.84175C35.9499 2.63093 35.4814 2.52552 34.9895 2.52552C34.4742 2.52552 34.0994 2.71291 33.8651 3.08771C33.6309 3.43908 33.5138 3.931 33.5138 4.56347V14.2965H34.603ZM45.9405 18.1967C45.9405 20.9608 46.2568 23.0691 46.8892 24.5214C47.5217 25.9738 48.3767 26.6999 49.4543 26.6999C49.8291 26.6999 50.157 26.6179 50.4381 26.454C50.7192 26.29 50.9769 26.0792 51.2111 25.8215C51.4454 25.5638 51.6445 25.271 51.8084 24.9431C51.9724 24.6151 52.113 24.2755 52.2301 23.9241C52.4878 23.1042 52.6752 22.1789 52.7923 21.1482H53.7761C53.659 22.4835 53.4013 23.6781 53.0031 24.7322C52.8391 25.1773 52.6283 25.6224 52.3706 26.0675C52.1364 26.5125 51.8436 26.899 51.4922 27.227C51.1643 27.5549 50.7778 27.8243 50.3327 28.0351C49.8876 28.246 49.3723 28.3514 48.7866 28.3514C46.9595 28.3514 45.4837 27.4729 44.3594 25.7161C43.235 23.9358 42.6728 21.4293 42.6728 18.1967C42.6728 16.8615 42.7899 15.5848 43.0241 14.3668C43.2584 13.1252 43.6215 12.0477 44.1134 11.1341C44.6287 10.1971 45.2729 9.45926 46.0459 8.92049C46.8424 8.35829 47.7794 8.0772 48.8569 8.0772C49.8876 8.0772 50.7543 8.37001 51.4571 8.95563C52.1832 9.51782 52.7689 10.2674 53.2139 11.2044C53.659 12.1414 53.9752 13.2072 54.1626 14.4019C54.3735 15.5731 54.4789 16.7561 54.4789 17.9508V18.1967H45.9405ZM48.8569 8.95563C47.9199 8.95563 47.2055 9.6818 46.7136 11.1341C46.2451 12.563 45.9874 14.6244 45.9405 17.3183H51.5273C51.5273 15.7957 51.4571 14.5073 51.3165 13.4532C51.1994 12.3991 51.0237 11.5441 50.7895 10.8882C50.5552 10.2089 50.2741 9.71693 49.9462 9.41241C49.6182 9.10789 49.2551 8.95563 48.8569 8.95563ZM67.4085 23.4322C67.4085 24.3457 67.432 25.0719 67.4788 25.6107C67.5257 26.1494 67.6194 26.5594 67.7599 26.8405C67.9239 27.1216 68.1581 27.309 68.4627 27.4027C68.7672 27.4729 69.1654 27.5081 69.6573 27.5081V28H64.1408V25.2242C63.7426 26.2314 63.2038 27.0044 62.5245 27.5432C61.8452 28.082 61.0838 28.3514 60.2406 28.3514C59.6549 28.3514 59.0927 28.2694 58.554 28.1054C58.0152 27.9649 57.5467 27.7189 57.1485 27.3675C56.7737 26.9927 56.4692 26.5125 56.2349 25.9269C56.0007 25.3413 55.8835 24.6151 55.8835 23.7484C55.8835 22.7177 56.0827 21.8393 56.4809 21.1131C56.9025 20.3869 57.4179 19.7662 58.0269 19.2508C58.636 18.7121 59.2919 18.2553 59.9946 17.8805C60.7208 17.5057 61.3884 17.1543 61.9974 16.8264C62.6065 16.4984 63.1101 16.1705 63.5083 15.8425C63.93 15.5146 64.1408 15.1398 64.1408 14.7181V14.3668C64.1408 12.7739 63.8363 11.5558 63.2272 10.7125C62.6182 9.8692 61.8217 9.44755 60.8379 9.44755C60.1117 9.44755 59.491 9.67008 58.9756 10.1152C58.4603 10.5602 58.0855 11.2747 57.8512 12.2585C58.0386 12.1883 58.2377 12.1531 58.4486 12.1531C58.9639 12.1531 59.3973 12.3405 59.7486 12.7153C60.1234 13.0667 60.3108 13.5118 60.3108 14.0505C60.3108 14.5659 60.1234 15.0109 59.7486 15.3857C59.3973 15.7371 58.9639 15.9128 58.4486 15.9128C57.9098 15.9128 57.453 15.7371 57.0782 15.3857C56.7268 15.0109 56.5511 14.5659 56.5511 14.0505C56.5511 13.1838 56.68 12.3874 56.9377 11.6612C57.2188 10.935 57.6053 10.3143 58.0972 9.79892C58.5891 9.26015 59.1747 8.8385 59.854 8.53398C60.5334 8.22946 61.283 8.0772 62.1028 8.0772C62.8524 8.0772 63.5552 8.21775 64.2111 8.49884C64.867 8.77994 65.4292 9.22501 65.8976 9.83406C66.3661 10.4197 66.7292 11.181 66.9869 12.118C67.268 13.0315 67.4085 14.1442 67.4085 15.456V23.4322ZM64.1408 16.3696C63.766 16.7678 63.2858 17.1426 62.7002 17.494C62.138 17.8219 61.5875 18.2201 61.0487 18.6886C60.5334 19.1571 60.0883 19.7428 59.7135 20.4455C59.3387 21.1248 59.1513 22.015 59.1513 23.1159C59.1513 24.4746 59.3153 25.4116 59.6432 25.9269C59.9712 26.4422 60.428 26.6999 61.0136 26.6999C61.7397 26.6999 62.3956 26.3486 62.9813 25.6458C63.5669 24.9431 63.9534 23.9124 64.1408 22.5537V16.3696ZM80.9526 8.0772C81.5382 8.10062 82.0301 8.32316 82.4283 8.7448C82.85 9.14303 83.0608 9.64666 83.0608 10.2557C83.0608 10.8647 82.8383 11.3918 82.3932 11.8369C81.9716 12.2585 81.4562 12.4693 80.8472 12.4693C80.2381 12.4693 79.7228 12.2585 79.3011 11.8369C78.8795 11.3918 78.6687 10.8647 78.6687 10.2557C78.6687 10.0917 78.6921 9.89262 78.7389 9.65837C78.1533 10.1269 77.638 10.7828 77.1929 11.6261C76.7712 12.4693 76.4199 13.3829 76.1388 14.3668C75.8577 15.3506 75.6469 16.3344 75.5063 17.3183C75.3892 18.3021 75.3306 19.1806 75.3306 19.9536V23.4322C75.3306 24.3457 75.354 25.0719 75.4009 25.6107C75.4477 26.1494 75.5414 26.5594 75.682 26.8405C75.846 27.1216 76.0685 27.309 76.3496 27.4027C76.6541 27.4729 77.0523 27.5081 77.5443 27.5081V28H69.8492V27.5081C70.3411 27.5081 70.7276 27.4729 71.0087 27.4027C71.3133 27.309 71.5358 27.1216 71.6763 26.8405C71.8403 26.5594 71.9457 26.1494 71.9926 25.6107C72.0394 25.0719 72.0629 24.3457 72.0629 23.4322V14.4019C72.0629 13.6992 72.016 13.1252 71.9223 12.6802C71.852 12.2117 71.7232 11.8486 71.5358 11.5909C71.3718 11.3332 71.1493 11.1576 70.8682 11.0639C70.5871 10.9702 70.2474 10.9233 69.8492 10.9233V10.4314C70.9736 10.3845 71.9692 10.2089 72.8359 9.90433C73.7026 9.57638 74.3702 9.08446 74.8387 8.42857H75.3306V14.0505C75.5414 13.2072 75.8108 12.4225 76.1388 11.6963C76.4667 10.9702 76.8532 10.3377 77.2983 9.79892C77.7668 9.26015 78.2939 8.8385 78.8795 8.53398C79.4651 8.22946 80.121 8.0772 80.8472 8.0772H80.8823H80.9526ZM89.7794 1.64708C91.1381 1.64708 92.2976 1.82277 93.258 2.17414C94.2419 2.52552 95.05 3.00572 95.6825 3.61477C96.315 4.20039 96.7717 4.89142 97.0528 5.68786C97.3574 6.48431 97.5096 7.3276 97.5096 8.21775C97.5096 9.08446 97.3574 9.93947 97.0528 10.7828C96.7717 11.6261 96.315 12.3756 95.6825 13.0315C95.05 13.664 94.2419 14.1794 93.258 14.5776C92.2976 14.9758 91.1381 15.1749 89.7794 15.1749H88.6902V23.4322C88.6902 24.2755 88.7019 24.9665 88.7253 25.5053C88.7722 26.044 88.8659 26.4657 89.0064 26.7702C89.147 27.0513 89.3695 27.2504 89.674 27.3675C89.9785 27.4612 90.4002 27.5081 90.939 27.5081V28H82.8925V27.5081C83.4547 27.5081 83.8881 27.4612 84.1926 27.3675C84.4971 27.2504 84.7197 27.0513 84.8602 26.7702C85.0008 26.4657 85.0828 26.044 85.1062 25.5053C85.153 24.9665 85.1765 24.2755 85.1765 23.4322V5.723C85.1765 4.97341 85.153 4.36436 85.1062 3.89587C85.0593 3.42737 84.9539 3.06429 84.7899 2.80661C84.6494 2.54894 84.4269 2.37325 84.1223 2.27955C83.8412 2.18585 83.4313 2.13901 82.8925 2.13901V1.64708H89.7794ZM89.7794 14.2965C91.1849 14.2731 92.2156 13.7694 92.8715 12.7856C93.5508 11.8017 93.8905 10.2791 93.8905 8.21775C93.8905 7.18705 93.7851 6.32033 93.5742 5.61759C93.3634 4.89142 93.0823 4.3058 92.731 3.86073C92.403 3.39223 92.0165 3.05257 91.5714 2.84175C91.1264 2.63093 90.6579 2.52552 90.1659 2.52552C89.6506 2.52552 89.2758 2.71291 89.0415 3.08771C88.8073 3.43908 88.6902 3.931 88.6902 4.56347V14.2965H89.7794ZM109.203 23.4322C109.203 24.3457 109.226 25.0719 109.273 25.6107C109.32 26.1494 109.413 26.5594 109.554 26.8405C109.718 27.1216 109.952 27.309 110.257 27.4027C110.561 27.4729 110.959 27.5081 111.451 27.5081V28H105.935V25.2242C105.537 26.2314 104.998 27.0044 104.319 27.5432C103.639 28.082 102.878 28.3514 102.035 28.3514C101.449 28.3514 100.887 28.2694 100.348 28.1054C99.8093 27.9649 99.3408 27.7189 98.9426 27.3675C98.5678 26.9927 98.2632 26.5125 98.029 25.9269C97.7947 25.3413 97.6776 24.6151 97.6776 23.7484C97.6776 22.7177 97.8767 21.8393 98.2749 21.1131C98.6966 20.3869 99.2119 19.7662 99.821 19.2508C100.43 18.7121 101.086 18.2553 101.789 17.8805C102.515 17.5057 103.182 17.1543 103.791 16.8264C104.401 16.4984 104.904 16.1705 105.302 15.8425C105.724 15.5146 105.935 15.1398 105.935 14.7181V14.3668C105.935 12.7739 105.63 11.5558 105.021 10.7125C104.412 9.8692 103.616 9.44755 102.632 9.44755C101.906 9.44755 101.285 9.67008 100.77 10.1152C100.254 10.5602 99.8795 11.2747 99.6453 12.2585C99.8327 12.1883 100.032 12.1531 100.243 12.1531C100.758 12.1531 101.191 12.3405 101.543 12.7153C101.918 13.0667 102.105 13.5118 102.105 14.0505C102.105 14.5659 101.918 15.0109 101.543 15.3857C101.191 15.7371 100.758 15.9128 100.243 15.9128C99.7039 15.9128 99.2471 15.7371 98.8723 15.3857C98.5209 15.0109 98.3452 14.5659 98.3452 14.0505C98.3452 13.1838 98.4741 12.3874 98.7317 11.6612C99.0128 10.935 99.3993 10.3143 99.8913 9.79892C100.383 9.26015 100.969 8.8385 101.648 8.53398C102.327 8.22946 103.077 8.0772 103.897 8.0772C104.646 8.0772 105.349 8.21775 106.005 8.49884C106.661 8.77994 107.223 9.22501 107.692 9.83406C108.16 10.4197 108.523 11.181 108.781 12.118C109.062 13.0315 109.203 14.1442 109.203 15.456V23.4322ZM105.935 16.3696C105.56 16.7678 105.08 17.1426 104.494 17.494C103.932 17.8219 103.382 18.2201 102.843 18.6886C102.327 19.1571 101.882 19.7428 101.508 20.4455C101.133 21.1248 100.945 22.015 100.945 23.1159C100.945 24.4746 101.109 25.4116 101.437 25.9269C101.765 26.4422 102.222 26.6999 102.808 26.6999C103.534 26.6999 104.19 26.3486 104.775 25.6458C105.361 24.9431 105.747 23.9124 105.935 22.5537V16.3696ZM116.531 8.95563C116.344 8.95563 116.145 8.99076 115.934 9.06104C115.723 9.10789 115.524 9.22501 115.337 9.41241C115.173 9.57638 115.032 9.83406 114.915 10.1854C114.798 10.5368 114.739 10.9936 114.739 11.5558C114.739 12.2585 114.915 12.9378 115.267 13.5937C115.618 14.2262 116.051 14.847 116.567 15.456C117.105 16.0651 117.679 16.6741 118.288 17.2831C118.921 17.8922 119.495 18.5364 120.01 19.2157C120.549 19.8716 120.994 20.5743 121.345 21.3239C121.697 22.0735 121.872 22.8817 121.872 23.7484C121.872 24.334 121.79 24.9079 121.626 25.4701C121.462 26.0089 121.193 26.5008 120.818 26.9459C120.443 27.3675 119.963 27.7072 119.378 27.9649C118.815 28.2225 118.124 28.3514 117.305 28.3514C116.813 28.3514 116.379 28.2928 116.004 28.1757C115.63 28.082 115.278 27.9766 114.95 27.8595C114.646 27.7189 114.365 27.6018 114.107 27.5081C113.849 27.391 113.592 27.3324 113.334 27.3324C113.24 27.3324 113.17 27.3675 113.123 27.4378C113.076 27.5081 113.029 27.5784 112.983 27.6486C112.936 27.7658 112.912 27.8829 112.912 28H112.526V21.0077H113.018C113.229 22.2258 113.51 23.3033 113.861 24.2403C114.072 24.7791 114.306 25.3061 114.564 25.8215C114.845 26.3134 115.173 26.7116 115.548 27.0162C115.922 27.3207 116.344 27.4729 116.813 27.4729C117.375 27.4729 117.808 27.2738 118.113 26.8756C118.441 26.454 118.605 25.7512 118.605 24.7674C118.605 23.9007 118.429 23.1042 118.078 22.378C117.726 21.6519 117.281 20.9726 116.742 20.3401C116.227 19.7076 115.653 19.0986 115.021 18.513C114.412 17.9039 113.838 17.2831 113.299 16.6507C112.784 15.9948 112.35 15.3155 111.999 14.6127C111.647 13.91 111.472 13.1252 111.472 12.2585C111.472 11.0873 111.835 10.1034 112.561 9.307C113.287 8.48713 114.47 8.0772 116.11 8.0772C116.602 8.0772 117.012 8.13576 117.34 8.25288C117.691 8.34658 117.996 8.45199 118.253 8.56912C118.511 8.68624 118.745 8.80336 118.956 8.92049C119.19 9.01419 119.424 9.06104 119.659 9.06104C119.776 9.06104 119.858 9.0259 119.905 8.95563C119.952 8.88535 119.987 8.81508 120.01 8.7448C120.057 8.6511 120.08 8.54569 120.08 8.42857H120.467V14.1559H119.975C119.764 13.1955 119.495 12.3288 119.167 11.5558C118.886 10.8999 118.523 10.3026 118.078 9.76378C117.656 9.22501 117.141 8.95563 116.531 8.95563ZM127.786 8.95563C127.599 8.95563 127.4 8.99076 127.189 9.06104C126.978 9.10789 126.779 9.22501 126.592 9.41241C126.428 9.57638 126.287 9.83406 126.17 10.1854C126.053 10.5368 125.994 10.9936 125.994 11.5558C125.994 12.2585 126.17 12.9378 126.521 13.5937C126.873 14.2262 127.306 14.847 127.822 15.456C128.36 16.0651 128.934 16.6741 129.543 17.2831C130.176 17.8922 130.75 18.5364 131.265 19.2157C131.804 19.8716 132.249 20.5743 132.6 21.3239C132.952 22.0735 133.127 22.8817 133.127 23.7484C133.127 24.334 133.045 24.9079 132.881 25.4701C132.717 26.0089 132.448 26.5008 132.073 26.9459C131.698 27.3675 131.218 27.7072 130.632 27.9649C130.07 28.2225 129.379 28.3514 128.559 28.3514C128.067 28.3514 127.634 28.2928 127.259 28.1757C126.885 28.082 126.533 27.9766 126.205 27.8595C125.901 27.7189 125.62 27.6018 125.362 27.5081C125.104 27.391 124.847 27.3324 124.589 27.3324C124.495 27.3324 124.425 27.3675 124.378 27.4378C124.331 27.5081 124.284 27.5784 124.238 27.6486C124.191 27.7658 124.167 27.8829 124.167 28H123.781V21.0077H124.273C124.483 22.2258 124.765 23.3033 125.116 24.2403C125.327 24.7791 125.561 25.3061 125.819 25.8215C126.1 26.3134 126.428 26.7116 126.803 27.0162C127.177 27.3207 127.599 27.4729 128.067 27.4729C128.63 27.4729 129.063 27.2738 129.368 26.8756C129.695 26.454 129.859 25.7512 129.859 24.7674C129.859 23.9007 129.684 23.1042 129.332 22.378C128.981 21.6519 128.536 20.9726 127.997 20.3401C127.482 19.7076 126.908 19.0986 126.275 18.513C125.666 17.9039 125.093 17.2831 124.554 16.6507C124.038 15.9948 123.605 15.3155 123.254 14.6127C122.902 13.91 122.727 13.1252 122.727 12.2585C122.727 11.0873 123.09 10.1034 123.816 9.307C124.542 8.48713 125.725 8.0772 127.365 8.0772C127.857 8.0772 128.267 8.13576 128.595 8.25288C128.946 8.34658 129.25 8.45199 129.508 8.56912C129.766 8.68624 130 8.80336 130.211 8.92049C130.445 9.01419 130.679 9.06104 130.914 9.06104C131.031 9.06104 131.113 9.0259 131.16 8.95563C131.206 8.88535 131.242 8.81508 131.265 8.7448C131.312 8.6511 131.335 8.54569 131.335 8.42857H131.722V14.1559H131.23C131.019 13.1955 130.75 12.3288 130.422 11.5558C130.141 10.8999 129.777 10.3026 129.332 9.76378C128.911 9.22501 128.395 8.95563 127.786 8.95563Z" fill="#F6F6F6"/>
</svg>
