<svg width="553" height="201" viewBox="0 0 553 201" fill="none" xmlns="http://www.w3.org/2000/svg">
<g clip-path="url(#clip0_13200_237875)">
<rect x="0.5" y="0.5" width="552" height="200" rx="8" fill="#212814"/>
<g filter="url(#filter0_d_13200_237875)">
<g clip-path="url(#clip1_13200_237875)">
<rect x="121.75" y="26.5" width="130.636" height="272" rx="15.1968" fill="url(#paint0_linear_13200_237875)"/>
<rect x="127.203" y="49.2695" width="120.163" height="22.8105" rx="3.25865" fill="#2C3618"/>
<rect x="132.091" y="54.1562" width="13.0346" height="13.0346" rx="3.25865" fill="#37431D"/>
<rect x="150.014" y="54.9727" width="46.8431" height="5.2953" rx="2.64765" fill="#37431D"/>
<rect x="150.014" y="61.082" width="31.3645" height="5.2953" rx="2.64765" fill="#37431D"/>
<rect x="127.203" y="75.3203" width="120.163" height="22.8105" rx="3.25865" fill="#2C3618"/>
<rect x="132.091" y="80.207" width="13.0346" height="13.0346" rx="3.25865" fill="#37431D"/>
<rect x="150.014" y="81.0234" width="40.3258" height="5.2953" rx="2.64765" fill="#37431D"/>
<rect x="150.014" y="87.1328" width="36.6598" height="5.2953" rx="2.64765" fill="#37431D"/>
<rect x="127.203" y="101.371" width="120.163" height="22.8105" rx="3.25865" fill="#2C3618"/>
<rect x="132.091" y="106.258" width="13.0346" height="13.0346" rx="3.25865" fill="#37431D"/>
<rect x="150.014" y="107.074" width="54.175" height="5.2953" rx="2.64765" fill="#37431D"/>
<rect x="150.014" y="113.184" width="45.2137" height="5.2953" rx="2.64765" fill="#37431D"/>
<rect x="127.203" y="127.418" width="120.163" height="22.8105" rx="3.25865" fill="#2C3618"/>
<rect x="132.091" y="132.305" width="13.0346" height="13.0346" rx="3.25865" fill="#37431D"/>
<rect x="150.014" y="133.121" width="46.8431" height="5.2953" rx="2.64765" fill="#37431D"/>
<rect x="150.014" y="139.23" width="31.3645" height="5.2953" rx="2.64765" fill="#37431D"/>
<rect x="127.203" y="153.469" width="120.163" height="22.8105" rx="3.25865" fill="#2C3618"/>
<rect x="132.091" y="158.355" width="13.0346" height="13.0346" rx="3.25865" fill="#37431D"/>
<rect x="150.014" y="159.172" width="46.8431" height="5.2953" rx="2.64765" fill="#37431D"/>
<rect x="150.014" y="165.281" width="31.3645" height="5.2953" rx="2.64765" fill="#37431D"/>
<rect x="127.203" y="179.52" width="120.163" height="22.8105" rx="3.25865" fill="#2C3618"/>
<rect x="132.091" y="184.406" width="13.0346" height="13.0346" rx="3.25865" fill="#37431D"/>
<rect x="150.014" y="185.223" width="40.3258" height="5.2953" rx="2.64765" fill="#37431D"/>
<rect x="150.014" y="191.332" width="36.6598" height="5.2953" rx="2.64765" fill="#37431D"/>
</g>
</g>
<g filter="url(#filter1_d_13200_237875)">
<g clip-path="url(#clip2_13200_237875)">
<rect x="300.604" y="26.5" width="130.636" height="272" rx="15.1968" fill="url(#paint1_linear_13200_237875)"/>
<rect x="306.058" y="49.2695" width="120.163" height="22.8105" rx="3.25865" fill="#2C3618"/>
<rect x="310.945" y="54.1562" width="13.0346" height="13.0346" rx="3.25865" fill="#37431D"/>
<rect x="328.868" y="54.9727" width="46.8431" height="5.2953" rx="2.64765" fill="#37431D"/>
<rect x="328.868" y="61.082" width="31.3645" height="5.2953" rx="2.64765" fill="#37431D"/>
<rect x="306.058" y="75.3203" width="120.163" height="22.8105" rx="3.25865" fill="#2C3618"/>
<rect x="310.945" y="80.207" width="13.0346" height="13.0346" rx="3.25865" fill="#37431D"/>
<rect x="328.868" y="81.0234" width="40.3258" height="5.2953" rx="2.64765" fill="#37431D"/>
<rect x="328.868" y="87.1328" width="36.6598" height="5.2953" rx="2.64765" fill="#37431D"/>
<rect x="306.058" y="101.371" width="120.163" height="22.8105" rx="3.25865" fill="#2C3618"/>
<rect x="310.945" y="106.258" width="13.0346" height="13.0346" rx="3.25865" fill="#37431D"/>
<rect x="328.868" y="107.074" width="54.175" height="5.2953" rx="2.64765" fill="#37431D"/>
<rect x="328.868" y="113.184" width="45.2137" height="5.2953" rx="2.64765" fill="#37431D"/>
<rect x="306.058" y="127.418" width="120.163" height="22.8105" rx="3.25865" fill="#2C3618"/>
<rect x="310.945" y="132.305" width="13.0346" height="13.0346" rx="3.25865" fill="#37431D"/>
<rect x="328.868" y="133.121" width="46.8431" height="5.2953" rx="2.64765" fill="#37431D"/>
<rect x="328.868" y="139.23" width="31.3645" height="5.2953" rx="2.64765" fill="#37431D"/>
<rect x="306.058" y="153.469" width="120.163" height="22.8105" rx="3.25865" fill="#2C3618"/>
<rect x="310.945" y="158.355" width="13.0346" height="13.0346" rx="3.25865" fill="#37431D"/>
<rect x="328.868" y="159.172" width="46.8431" height="5.2953" rx="2.64765" fill="#37431D"/>
<rect x="328.868" y="165.281" width="31.3645" height="5.2953" rx="2.64765" fill="#37431D"/>
<rect x="306.058" y="179.52" width="120.163" height="22.8105" rx="3.25865" fill="#2C3618"/>
<rect x="310.945" y="184.406" width="13.0346" height="13.0346" rx="3.25865" fill="#37431D"/>
<rect x="328.868" y="185.223" width="40.3258" height="5.2953" rx="2.64765" fill="#37431D"/>
<rect x="328.868" y="191.332" width="36.6598" height="5.2953" rx="2.64765" fill="#37431D"/>
</g>
</g>
<g filter="url(#filter2_dd_13200_237875)">
<rect x="230.141" y="54.5" width="92.7273" height="92.7273" rx="46.3636" fill="#B0D944" shape-rendering="crispEdges"/>
<path d="M269.437 109.397L261.793 101.754C260.934 100.894 259.546 100.894 258.687 101.754C257.828 102.613 257.828 104 258.687 104.859L267.895 114.067C268.754 114.926 270.142 114.926 271.001 114.067L294.306 90.7619C295.165 89.9028 295.165 88.5151 294.306 87.656C293.446 86.797 292.059 86.797 291.2 87.656L269.437 109.397Z" fill="#08090C"/>
</g>
</g>
<rect x="0.5" y="0.5" width="552" height="200" rx="8" stroke="#212814"/>
<defs>
<filter id="filter0_d_13200_237875" x="104.636" y="9.38558" width="164.865" height="306.229" filterUnits="userSpaceOnUse" color-interpolation-filters="sRGB">
<feFlood flood-opacity="0" result="BackgroundImageFix"/>
<feColorMatrix in="SourceAlpha" type="matrix" values="0 0 0 0 0 0 0 0 0 0 0 0 0 0 0 0 0 0 127 0" result="hardAlpha"/>
<feMorphology radius="6.84577" operator="dilate" in="SourceAlpha" result="effect1_dropShadow_13200_237875"/>
<feOffset/>
<feGaussianBlur stdDeviation="5.13433"/>
<feComposite in2="hardAlpha" operator="out"/>
<feColorMatrix type="matrix" values="0 0 0 0 0.172549 0 0 0 0 0.211765 0 0 0 0 0.0941176 0 0 0 1 0"/>
<feBlend mode="normal" in2="BackgroundImageFix" result="effect1_dropShadow_13200_237875"/>
<feBlend mode="normal" in="SourceGraphic" in2="effect1_dropShadow_13200_237875" result="shape"/>
</filter>
<filter id="filter1_d_13200_237875" x="283.49" y="9.38558" width="164.865" height="306.229" filterUnits="userSpaceOnUse" color-interpolation-filters="sRGB">
<feFlood flood-opacity="0" result="BackgroundImageFix"/>
<feColorMatrix in="SourceAlpha" type="matrix" values="0 0 0 0 0 0 0 0 0 0 0 0 0 0 0 0 0 0 127 0" result="hardAlpha"/>
<feMorphology radius="6.84577" operator="dilate" in="SourceAlpha" result="effect1_dropShadow_13200_237875"/>
<feOffset/>
<feGaussianBlur stdDeviation="5.13433"/>
<feComposite in2="hardAlpha" operator="out"/>
<feColorMatrix type="matrix" values="0 0 0 0 0.172549 0 0 0 0 0.211765 0 0 0 0 0.0941176 0 0 0 1 0"/>
<feBlend mode="normal" in2="BackgroundImageFix" result="effect1_dropShadow_13200_237875"/>
<feBlend mode="normal" in="SourceGraphic" in2="effect1_dropShadow_13200_237875" result="shape"/>
</filter>
<filter id="filter2_dd_13200_237875" x="199.232" y="35.9545" width="154.546" height="154.545" filterUnits="userSpaceOnUse" color-interpolation-filters="sRGB">
<feFlood flood-opacity="0" result="BackgroundImageFix"/>
<feColorMatrix in="SourceAlpha" type="matrix" values="0 0 0 0 0 0 0 0 0 0 0 0 0 0 0 0 0 0 127 0" result="hardAlpha"/>
<feOffset dy="12.3636"/>
<feGaussianBlur stdDeviation="15.4545"/>
<feComposite in2="hardAlpha" operator="out"/>
<feColorMatrix type="matrix" values="0 0 0 0 0 0 0 0 0 0 0 0 0 0 0 0 0 0 0.3 0"/>
<feBlend mode="normal" in2="BackgroundImageFix" result="effect1_dropShadow_13200_237875"/>
<feColorMatrix in="SourceAlpha" type="matrix" values="0 0 0 0 0 0 0 0 0 0 0 0 0 0 0 0 0 0 127 0" result="hardAlpha"/>
<feMorphology radius="0.927273" operator="dilate" in="SourceAlpha" result="effect2_dropShadow_13200_237875"/>
<feOffset/>
<feComposite in2="hardAlpha" operator="out"/>
<feColorMatrix type="matrix" values="0 0 0 0 0.14902 0 0 0 0 0.14902 0 0 0 0 0.14902 0 0 0 1 0"/>
<feBlend mode="lighten" in2="effect1_dropShadow_13200_237875" result="effect2_dropShadow_13200_237875"/>
<feBlend mode="normal" in="SourceGraphic" in2="effect2_dropShadow_13200_237875" result="shape"/>
</filter>
<linearGradient id="paint0_linear_13200_237875" x1="187.068" y1="26.5" x2="187.068" y2="298.5" gradientUnits="userSpaceOnUse">
<stop stop-color="#212814"/>
<stop offset="0.495378" stop-color="#15180E"/>
</linearGradient>
<linearGradient id="paint1_linear_13200_237875" x1="365.922" y1="26.5" x2="365.922" y2="298.5" gradientUnits="userSpaceOnUse">
<stop stop-color="#212814"/>
<stop offset="0.495378" stop-color="#15180E"/>
</linearGradient>
<clipPath id="clip0_13200_237875">
<rect x="0.5" y="0.5" width="552" height="200" rx="8" fill="white"/>
</clipPath>
<clipPath id="clip1_13200_237875">
<rect x="121.75" y="26.5" width="130.636" height="272" rx="15.1968" fill="white"/>
</clipPath>
<clipPath id="clip2_13200_237875">
<rect x="300.604" y="26.5" width="130.636" height="272" rx="15.1968" fill="white"/>
</clipPath>
</defs>
</svg>
