<svg width="553" height="129" viewBox="0 0 553 129" fill="none" xmlns="http://www.w3.org/2000/svg">
<rect x="0.5" y="0.5" width="552" height="128" rx="8" fill="#212814"/>
<rect x="0.5" y="0.5" width="552" height="128" rx="8" stroke="#212814"/>
<g clip-path="url(#clip0_13200_235536)">
<g opacity="0.5">
<g clip-path="url(#clip1_13200_235536)">
<g filter="url(#filter0_d_13200_235536)">
<path d="M24.5 32.5C24.5 28.0817 28.0817 24.5 32.5 24.5H520.5C524.918 24.5 528.5 28.0817 528.5 32.5V66.5H24.5V32.5Z" fill="#202124"/>
</g>
<path fill-rule="evenodd" clip-rule="evenodd" d="M38.5 66.5C39.8846 65.5588 43.1154 65.0882 44.5 58.5C44.5 58.5 44.5 66.5 44.5 66.5H38.5Z" fill="#35363A"/>
<path d="M44.5 40.5C44.5 36.0817 48.0817 32.5 52.5 32.5H186.778C191.197 32.5 194.778 36.0817 194.778 40.5V66.5H44.5V40.5Z" fill="#35363A"/>
<rect x="52.5" y="41.5" width="16" height="16" rx="8" fill="#A7A7A7"/>
<rect x="77.5" y="44.5" width="82.2783" height="10" rx="5" fill="#A7A7A7"/>
<path fill-rule="evenodd" clip-rule="evenodd" d="M181.362 45.9221C181.14 45.7002 180.782 45.7002 180.56 45.9221L177.778 48.698L174.997 45.9164C174.775 45.6945 174.417 45.6945 174.195 45.9164C173.973 46.1382 173.973 46.4966 174.195 46.7184L176.976 49.5L174.195 52.2816C173.973 52.5034 173.973 52.8618 174.195 53.0836C174.417 53.3055 174.775 53.3055 174.997 53.0836L177.778 50.302L180.56 53.0836C180.782 53.3055 181.14 53.3055 181.362 53.0836C181.584 52.8618 181.584 52.5034 181.362 52.2816L178.58 49.5L181.362 46.7184C181.578 46.5023 181.578 46.1382 181.362 45.9221Z" fill="white"/>
<path fill-rule="evenodd" clip-rule="evenodd" d="M200.778 66.5C199.394 65.5588 196.163 65.0882 194.778 58.5C194.778 58.5 194.778 66.5 194.778 66.5H200.778Z" fill="#35363A"/>
<path fill-rule="evenodd" clip-rule="evenodd" d="M224.493 50.4511H219.731V55.213C219.731 55.7368 219.302 56.1654 218.778 56.1654C218.254 56.1654 217.826 55.7368 217.826 55.213V50.4511H213.064C212.54 50.4511 212.112 50.0225 212.112 49.4987C212.112 48.9749 212.54 48.5463 213.064 48.5463H217.826V43.7844C217.826 43.2606 218.254 42.832 218.778 42.832C219.302 42.832 219.731 43.2606 219.731 43.7844V48.5463H224.493C225.016 48.5463 225.445 48.9749 225.445 49.4987C225.445 50.0225 225.016 50.4511 224.493 50.4511Z" fill="#BDC1C6"/>
</g>
</g>
<g clip-path="url(#clip2_13200_235536)">
<rect x="24.5" y="66.5" width="504" height="38" fill="#35363A"/>
<g opacity="0.5" clip-path="url(#clip3_13200_235536)">
<path fill-rule="evenodd" clip-rule="evenodd" d="M137.5 79.5102C137.683 79.4849 137.875 79.5358 138.022 79.6694L143.289 84.436C143.552 84.6746 143.574 85.0813 143.337 85.3461C143.098 85.6127 142.687 85.6343 142.422 85.394L141.996 85.0082V90.5004C141.996 91.0523 141.548 91.5001 140.996 91.5004H133.974C133.422 91.5004 132.975 91.0525 132.974 90.5004V85.0346L132.578 85.394C132.312 85.6339 131.903 85.6125 131.664 85.3461C131.427 85.0814 131.447 84.6746 131.711 84.436L136.978 79.6694C137.126 79.536 137.317 79.4851 137.5 79.5102ZM134.263 83.8686V90.2045H140.707V83.8412L137.5 80.9389L134.263 83.8686Z" fill="white"/>
<path fill-rule="evenodd" clip-rule="evenodd" d="M112.498 83.8312V80.3045C112.498 80.0045 112.138 79.8579 111.931 80.0712L110.745 81.2579C109.538 80.0512 107.818 79.3579 105.938 79.5245C103.145 79.7779 100.845 82.0245 100.538 84.8179C100.138 88.4312 102.958 91.4979 106.498 91.4979C109.558 91.4979 112.085 89.2046 112.451 86.2446C112.498 85.8446 112.185 85.4979 111.785 85.4979C111.451 85.4979 111.171 85.7446 111.131 86.0712C110.845 88.3979 108.838 90.1979 106.431 90.1645C103.958 90.1312 101.871 88.0445 101.831 85.5645C101.791 82.9646 103.905 80.8312 106.498 80.8312C107.785 80.8312 108.951 81.3579 109.798 82.1979L108.405 83.5912C108.191 83.8045 108.338 84.1645 108.638 84.1645H112.165C112.351 84.1645 112.498 84.0179 112.498 83.8312Z" fill="white"/>
<path fill-rule="evenodd" clip-rule="evenodd" d="M70.2701 86.117H78.8721L75.114 89.8751C74.8137 90.1754 74.8137 90.6683 75.114 90.9686C75.4143 91.269 75.8995 91.269 76.1998 90.9686L81.2747 85.8937C81.5751 85.5934 81.5751 85.1082 81.2747 84.8079L76.2075 79.7253C75.9072 79.4249 75.422 79.4249 75.1217 79.7253C74.8214 80.0256 74.8214 80.5107 75.1217 80.8111L78.8721 84.5768H70.2701C69.8465 84.5768 69.5 84.9234 69.5 85.3469C69.5 85.7705 69.8465 86.117 70.2701 86.117Z" fill="#86888A"/>
<path fill-rule="evenodd" clip-rule="evenodd" d="M49.7299 84.5768H41.1279L44.886 80.8188C45.1863 80.5185 45.1863 80.0256 44.886 79.7253C44.5857 79.4249 44.1005 79.4249 43.8002 79.7253L38.7253 84.8002C38.4249 85.1005 38.4249 85.5857 38.7253 85.886L43.8002 90.9609C44.1005 91.2613 44.5857 91.2613 44.886 90.9609C45.1863 90.6606 45.1863 90.1754 44.886 89.8751L41.1279 86.117H49.7299C50.1535 86.117 50.5 85.7705 50.5 85.3469C50.5 84.9234 50.1535 84.5768 49.7299 84.5768Z" fill="white"/>
</g>
<g opacity="0.5" clip-path="url(#clip4_13200_235536)">
<rect x="214.5" y="71.5" width="176" height="28" rx="14" fill="#202124"/>
<path fill-rule="evenodd" clip-rule="evenodd" d="M233.5 83.5H233V82.5C233 81.12 231.88 80 230.5 80C229.12 80 228 81.12 228 82.5V83.5H227.5C226.95 83.5 226.5 83.95 226.5 84.5V89.5C226.5 90.05 226.95 90.5 227.5 90.5H233.5C234.05 90.5 234.5 90.05 234.5 89.5V84.5C234.5 83.95 234.05 83.5 233.5 83.5ZM229 83.5V82.5C229 81.67 229.67 81 230.5 81C231.33 81 232 81.67 232 82.5V83.5H229Z" fill="#EAEAEA"/>
<rect x="239.5" y="80.5" width="122" height="10" rx="5" fill="#2B2C2F"/>
<path fill-rule="evenodd" clip-rule="evenodd" d="M377.862 83.3401L374.469 83.0456L373.144 79.9259C372.906 79.358 372.092 79.358 371.854 79.9259L370.529 83.0526L367.143 83.3401C366.526 83.3892 366.274 84.1603 366.743 84.5669L369.316 86.7963L368.545 90.1053C368.405 90.7083 369.057 91.185 369.59 90.8625L372.499 89.1098L375.408 90.8695C375.941 91.192 376.593 90.7153 376.453 90.1124L375.682 86.7963L378.255 84.5669C378.724 84.1603 378.479 83.3892 377.862 83.3401ZM372.499 87.7988L369.863 89.3903L370.564 86.3897L368.237 84.3706L371.307 84.1042L372.499 81.2789L373.698 84.1112L376.768 84.3777L374.441 86.3967L375.142 89.3973L372.499 87.7988Z" fill="#5F6368"/>
</g>
<g clip-path="url(#clip5_13200_235536)">
<rect x="459.5" y="71.5" width="28" height="28" rx="14" fill="#202124"/>
<path d="M478.372 91.25H472.427V91.8205H478.372V91.25Z" fill="#BADE5B"/>
<path d="M478.371 91.4805H468.629V92.1675H478.371V91.4805Z" fill="#BADE5B"/>
<path d="M478.372 90.2148H472.427V90.7853H478.372V90.2148Z" fill="#BADE5B"/>
<path d="M478.371 90.4453H468.629V91.1323H478.371V90.4453Z" fill="#BADE5B"/>
<path d="M478.372 89.1836H472.427V89.7541H478.372V89.1836Z" fill="#BADE5B"/>
<path d="M478.371 89.4062H468.629V90.0933H478.371V89.4062Z" fill="#BADE5B"/>
<path d="M478.372 88.1484H472.427V88.7189H478.372V88.1484Z" fill="#BADE5B"/>
<path d="M478.371 88.3711H468.629V89.0581H478.371V88.3711Z" fill="#BADE5B"/>
<path d="M478.372 87.1094H472.427V87.6798H478.372V87.1094Z" fill="#BADE5B"/>
<path d="M478.371 87.3398H468.629V88.0269H478.371V87.3398Z" fill="#BADE5B"/>
<path d="M478.372 86.0742H472.427V86.6447H478.372V86.0742Z" fill="#BADE5B"/>
<path d="M478.371 86.3047H468.629V86.9917H478.371V86.3047Z" fill="#BADE5B"/>
<path d="M478.372 85.043H472.427V85.6134H478.372V85.043Z" fill="#BADE5B"/>
<path d="M478.371 85.2695H468.629V85.9566H478.371V85.2695Z" fill="#BADE5B"/>
<path d="M471.419 84.2344H469.272V84.9214H471.419V84.2344Z" fill="#BADE5B"/>
<path d="M477.599 84.0078H476.256V84.5783H477.599V84.0078Z" fill="#BADE5B"/>
<path d="M471.419 84.0078H470.076V84.5783H471.419V84.0078Z" fill="#BADE5B"/>
<path d="M477.598 84.2344H475.451V84.9214H477.598V84.2344Z" fill="#BADE5B"/>
<path d="M471.419 83.1992H469.272V83.8862H471.419V83.1992Z" fill="#BADE5B"/>
<path d="M477.599 82.9727H476.256V83.5431H477.599V82.9727Z" fill="#BADE5B"/>
<path d="M471.419 82.9727H470.076V83.5431H471.419V82.9727Z" fill="#BADE5B"/>
<path d="M477.598 83.1992H475.451V83.8862H477.598V83.1992Z" fill="#BADE5B"/>
<path d="M471.419 82.1641H469.272V82.8511H471.419V82.1641Z" fill="#BADE5B"/>
<path d="M477.599 81.9375H476.256V82.508H477.599V81.9375Z" fill="#BADE5B"/>
<path d="M471.419 81.9375H470.076V82.508H471.419V81.9375Z" fill="#BADE5B"/>
<path d="M477.598 82.1641H475.451V82.8511H477.598V82.1641Z" fill="#BADE5B"/>
<path d="M471.842 81.1289H469.695V81.8159H471.842V81.1289Z" fill="#BADE5B"/>
<path d="M477.218 80.9023H475.875V81.4728H477.218V80.9023Z" fill="#BADE5B"/>
<path d="M471.841 80.9023H470.498V81.4728H471.841V80.9023Z" fill="#BADE5B"/>
<path d="M477.219 81.1289H475.072V81.8159H477.219V81.1289Z" fill="#BADE5B"/>
<path d="M476.419 79.8672H472.37V80.4377H476.419V79.8672Z" fill="#BADE5B"/>
<path d="M476.42 80.0938H470.498V80.7808H476.42V80.0938Z" fill="#BADE5B"/>
<path d="M475.562 78.832H472.596V79.4025H475.562V78.832Z" fill="#BADE5B"/>
<path d="M475.561 79.0586H471.191V79.7456H475.561V79.0586Z" fill="#BADE5B"/>
<g opacity="0.5">
<path fill-rule="evenodd" clip-rule="evenodd" d="M508.667 82.5C509.492 82.5 510.167 81.825 510.167 81C510.167 80.175 509.492 79.5 508.667 79.5C507.842 79.5 507.167 80.175 507.167 81C507.167 81.825 507.842 82.5 508.667 82.5ZM508.667 84C507.842 84 507.167 84.675 507.167 85.5C507.167 86.325 507.842 87 508.667 87C509.492 87 510.167 86.325 510.167 85.5C510.167 84.675 509.492 84 508.667 84ZM508.667 88.5C507.842 88.5 507.167 89.175 507.167 90C507.167 90.825 507.842 91.5 508.667 91.5C509.492 91.5 510.167 90.825 510.167 90C510.167 89.175 509.492 88.5 508.667 88.5Z" fill="#5F6368"/>
</g>
</g>
</g>
</g>
<defs>
<filter id="filter0_d_13200_235536" x="20.5" y="24.5" width="512" height="50" filterUnits="userSpaceOnUse" color-interpolation-filters="sRGB">
<feFlood flood-opacity="0" result="BackgroundImageFix"/>
<feColorMatrix in="SourceAlpha" type="matrix" values="0 0 0 0 0 0 0 0 0 0 0 0 0 0 0 0 0 0 127 0" result="hardAlpha"/>
<feOffset dy="4"/>
<feGaussianBlur stdDeviation="2"/>
<feColorMatrix type="matrix" values="0 0 0 0 0 0 0 0 0 0 0 0 0 0 0 0 0 0 0.25 0"/>
<feBlend mode="normal" in2="BackgroundImageFix" result="effect1_dropShadow_13200_235536"/>
<feBlend mode="normal" in="SourceGraphic" in2="effect1_dropShadow_13200_235536" result="shape"/>
</filter>
<clipPath id="clip0_13200_235536">
<rect x="24.5" y="24.5" width="504" height="80" rx="8" fill="white"/>
</clipPath>
<clipPath id="clip1_13200_235536">
<rect width="504" height="42" fill="white" transform="translate(24.5 24.5)"/>
</clipPath>
<clipPath id="clip2_13200_235536">
<rect width="504" height="38" fill="white" transform="translate(24.5 66.5)"/>
</clipPath>
<clipPath id="clip3_13200_235536">
<rect width="109" height="16" fill="white" transform="translate(36.5 77.5)"/>
</clipPath>
<clipPath id="clip4_13200_235536">
<rect width="176" height="28" fill="white" transform="translate(214.5 71.5)"/>
</clipPath>
<clipPath id="clip5_13200_235536">
<rect width="57" height="28" fill="white" transform="translate(459.5 71.5)"/>
</clipPath>
</defs>
</svg>
